<svg version="1.1" xmlns="http://www.w3.org/2000/svg" xmlns:xlink="http://www.w3.org/1999/xlink" width="455" height="373" viewBox="0,0,256,209.85938"><defs><clipPath id="clip-1"><rect x="1465" y="5629" width="455" height="373" id="clip-path" fill="none"></rect></clipPath></defs><g fill="none" fill-rule="nonzero" stroke="none" stroke-width="1" stroke-linecap="butt" stroke-linejoin="miter" stroke-miterlimit="10" stroke-dasharray="" stroke-dashoffset="0" font-family="none" font-weight="none" font-size="none" text-anchor="none" style="mix-blend-mode: normal"><g transform="translate(0,-0.00218) scale(0.56264,0.56264)"><g transform="translate(-1465,-5629)" clip-path="url(#clip-1)" id="ai"><g transform="translate(1490.061,5658.611)" id="logosymbol2_white" fill="#094431" opacity="0.05"><path d="M0,233.155c0,-105.278 83.035,-233.155 253.608,-233.155c85.292,0 145.727,44.1 162.105,112.449l-118.048,50.151c-8.477,-31.424 -31.625,-46.852 -61.559,-46.852c-59.3,0 -97.714,52.918 -97.714,105.808c0,42.449 27.112,66.145 62.116,66.145c30.5,0 55.357,-14.314 76.8,-40.229l91.521,70.557c-39.535,50.716 -97.148,84.332 -181.306,84.332c-110.7,-0.003 -187.523,-65.599 -187.523,-169.206z" id="패스_560"></path><path transform="translate(-35.3,-29.374)" d="M498.02,423.831l23.157,-84.341h-90.06l-23.147,84.341z" id="패스_561"></path></g></g></g></g></svg>