<svg xmlns="http://www.w3.org/2000/svg" xmlns:xlink="http://www.w3.org/1999/xlink" width="128.711" height="54.099" viewBox="0 0 128.711 54.099">
  <defs>
    <clipPath id="clip-path">
      <rect id="사각형_1045" data-name="사각형 1045" width="128.711" height="54.099" fill="#fff"/>
    </clipPath>
  </defs>
  <g id="그룹_388" data-name="그룹 388" transform="translate(0)">
    <path id="패스_7109" data-name="패스 7109" d="M.369,22.264v3.527H11.491L.049,39.645,0,39.705v2.879H16.71V39.057H5.216L16.662,25.2l.049-.061V22.264Z" transform="translate(0 -18.362)" fill="#fff"/>
    <path id="패스_7110" data-name="패스 7110" d="M302.059,42.584V22.264H298l-5.935,9.222-5.935-9.222H282.08v20.32h3.9V28.871l5.895,8.825h.343l5.949-8.884V42.584Z" transform="translate(-232.641 -18.362)" fill="#fff"/>
    <g id="그룹_387" data-name="그룹 387" transform="translate(0)">
      <g id="그룹_386" data-name="그룹 386" clip-path="url(#clip-path)">
        <path id="패스_7111" data-name="패스 7111" d="M455.437,39.346a5.319,5.319,0,0,0,.548-2.452,5.491,5.491,0,0,0-.3-1.872,4.175,4.175,0,0,0-.85-1.423,5.422,5.422,0,0,0-1.293-1.018,9.754,9.754,0,0,0-1.2-.578c.23-.141.46-.3.689-.472a4.689,4.689,0,0,0,.944-.971,4.827,4.827,0,0,0,.65-1.3,5.34,5.34,0,0,0,.25-1.689,4.7,4.7,0,0,0-1.839-3.9,7.822,7.822,0,0,0-4.9-1.411h-9.12v20.32h9.4a12.143,12.143,0,0,0,3.06-.361,7.161,7.161,0,0,0,2.4-1.083,5.01,5.01,0,0,0,1.557-1.794M442.915,34.03h5.307a5.176,5.176,0,0,1,2.949.671,2.077,2.077,0,0,1,.917,1.814,2.109,2.109,0,0,1-.927,1.881,4.718,4.718,0,0,1-2.684.66h-5.562Zm7.141-3.992h0a4.667,4.667,0,0,1-2.6.637h-4.541V25.791h4.8a4.068,4.068,0,0,1,2.461.628,2.015,2.015,0,0,1,.808,1.728,2.084,2.084,0,0,1-.924,1.891" transform="translate(-362.073 -18.362)" fill="#fff"/>
        <rect id="사각형_1044" data-name="사각형 1044" width="3.896" height="20.32" transform="translate(100.498 3.902)" fill="#fff"/>
        <path id="패스_7112" data-name="패스 7112" d="M655.171,39H643.778V34.117h9.973V30.532h-9.973V25.849H655.03V22.265H639.881v20.32h15.29Z" transform="translate(-527.731 -18.362)" fill="#fff"/>
        <path id="패스_7113" data-name="패스 7113" d="M17.865,205.041a5.215,5.215,0,0,0-1.262-.993,9.357,9.357,0,0,0-1.153-.555q.328-.2.653-.45a4.517,4.517,0,0,0,.922-.946,4.763,4.763,0,0,0,.634-1.266,5.179,5.179,0,0,0,.244-1.647,4.577,4.577,0,0,0-1.8-3.8h0a7.617,7.617,0,0,0-4.77-1.376H2.453V213.8h9.16a11.851,11.851,0,0,0,2.983-.352,6.936,6.936,0,0,0,2.336-1.056,4.9,4.9,0,0,0,1.515-1.746,5.182,5.182,0,0,0,.536-2.392,5.334,5.334,0,0,0-.29-1.828,4.118,4.118,0,0,0-.827-1.386m-11.6.438h5.159a5.034,5.034,0,0,1,2.863.651,2.007,2.007,0,0,1,.885,1.756,2.041,2.041,0,0,1-.9,1.823,4.593,4.593,0,0,1-2.607.641H6.262Zm6.936-3.9h0a4.544,4.544,0,0,1-2.524.619H6.262V197.46h4.66a3.966,3.966,0,0,1,2.39.61,1.951,1.951,0,0,1,.78,1.674,2.018,2.018,0,0,1-.895,1.831" transform="translate(-2.023 -160.006)" fill="#fff"/>
        <path id="패스_7114" data-name="패스 7114" d="M135.937,205.561h9.7v-3.505h-9.7v-4.539h10.947v-3.507H132.127V213.8h14.9V210.3H135.937Z" transform="translate(-108.969 -160.006)" fill="#fff"/>
        <path id="패스_7115" data-name="패스 7115" d="M255.6,193.22h-3.44l-8.571,19.624-.135.306h3.965l1.988-4.672h8.863l1.961,4.672h4.074l-8.649-19.8Zm1.239,11.806h-6l2.988-6.97Z" transform="translate(-200.788 -159.355)" fill="#fff"/>
        <path id="패스_7116" data-name="패스 7116" d="M398.71,205.37a5.42,5.42,0,0,1-1.247,3.885,4.558,4.558,0,0,1-3.427,1.288,4.436,4.436,0,0,1-3.454-1.339,5.67,5.67,0,0,1-1.251-3.972V194.01h-3.809v11.36a11.015,11.015,0,0,0,.594,3.767,7.453,7.453,0,0,0,1.708,2.749,7.143,7.143,0,0,0,2.68,1.668,10.392,10.392,0,0,0,3.473.552,10.574,10.574,0,0,0,3.516-.552,7.035,7.035,0,0,0,2.7-1.683,7.713,7.713,0,0,0,1.721-2.8,11.3,11.3,0,0,0,.608-3.862V194.01h-3.81Z" transform="translate(-317.952 -160.006)" fill="#fff"/>
        <path id="패스_7117" data-name="패스 7117" d="M511.775,197.6h6.14v16.2h3.865V197.6h6.14v-3.589H511.775Z" transform="translate(-422.077 -160.006)" fill="#fff"/>
        <path id="패스_7118" data-name="패스 7118" d="M637.653,194.01l-5.353,8.381-5.236-8.279-.063-.1h-4.537l7.874,12.006V213.8H634.2v-7.867l7.875-11.924Z" transform="translate(-513.366 -160.006)" fill="#fff"/>
        <path id="패스_7119" data-name="패스 7119" d="M143.5,26.75a10.373,10.373,0,0,0-2.119-3.273,11.061,11.061,0,0,0-11.435-2.5,12.436,12.436,0,0,0-3.611,2.21c-.1.09-.2.172-.289.265a10.19,10.19,0,0,0-2.2,3.35,10.872,10.872,0,0,0,0,8.117,10.063,10.063,0,0,0,5.511,5.587,10.926,10.926,0,0,0,4.289.826,10.74,10.74,0,0,0,4.29-.843,10.59,10.59,0,0,0,3.361-2.275,10.176,10.176,0,0,0,2.2-3.35,10.884,10.884,0,0,0,0-8.117m-9.8,10.945a6.338,6.338,0,0,1-2.638-.548,6.484,6.484,0,0,1-2.077-1.486,6.765,6.765,0,0,1-1.348-2.19,7.592,7.592,0,0,1,0-5.328,6.69,6.69,0,0,1,1.333-2.176,6.244,6.244,0,0,1,2.045-1.454,6.669,6.669,0,0,1,5.265.012,6.478,6.478,0,0,1,2.077,1.486A6.742,6.742,0,0,1,139.7,28.2h0a7.59,7.59,0,0,1,0,5.328,6.688,6.688,0,0,1-1.333,2.176,6.251,6.251,0,0,1-2.045,1.454,6.367,6.367,0,0,1-2.627.536" transform="translate(-101.486 -16.773)" fill="#fff"/>
        <path id="패스_7120" data-name="패스 7120" d="M142.677,5.576A6.426,6.426,0,0,1,140.54,0c-1.907,2.689-1.876,4.9-1.384,6.421a1.677,1.677,0,0,0,2.221.663,1.974,1.974,0,0,0,1.3-1.51" transform="translate(-114.532 -0.001)" fill="#fff"/>
        <path id="패스_7121" data-name="패스 7121" d="M207.943,7.086a1.677,1.677,0,0,0,2.221-.663c.492-1.524.524-3.733-1.383-6.421a6.426,6.426,0,0,1-2.138,5.575,1.974,1.974,0,0,0,1.3,1.509" transform="translate(-170.424 -0.001)" fill="#fff"/>
      </g>
    </g>
  </g>
</svg>
