<svg xmlns="http://www.w3.org/2000/svg" xmlns:xlink="http://www.w3.org/1999/xlink" width="211.074" height="21.425" viewBox="0 0 211.074 21.425">
  <defs>
    <clipPath id="clip-path">
      <rect id="사각형_1042" data-name="사각형 1042" width="211.074" height="21.425" fill="#fff"/>
    </clipPath>
  </defs>
  <g id="그룹_381" data-name="그룹 381" clip-path="url(#clip-path)">
    <path id="패스_7090" data-name="패스 7090" d="M296.374,24.855a1.969,1.969,0,1,0,1.968,1.968,1.97,1.97,0,0,0-1.968-1.968" transform="translate(-87.268 -7.368)" fill="#fff"/>
    <path id="패스_7091" data-name="패스 7091" d="M41.428,21.425A10.556,10.556,0,0,1,30.745,10.712a10.319,10.319,0,0,1,3.09-7.593,10.8,10.8,0,0,1,15.186,0,10.236,10.236,0,0,1,3.119,7.593A10.6,10.6,0,0,1,41.428,21.425m0-3.974a6.435,6.435,0,0,0,4.738-1.883,6.588,6.588,0,0,0,1.912-4.856,6.583,6.583,0,0,0-1.912-4.855,6.818,6.818,0,0,0-9.476,0,6.58,6.58,0,0,0-1.913,4.855,6.586,6.586,0,0,0,1.913,4.856,6.432,6.432,0,0,0,4.738,1.883" transform="translate(-9.113 0)" fill="#fff"/>
    <path id="패스_7092" data-name="패스 7092" d="M120.578.181V21.351h-4.143V7.621l-5.959,9.83h-.484l-5.957-9.8v13.7H99.861V.181h4.3l6.078,10.011L116.283.181Z" transform="translate(-29.601 -0.054)" fill="#fff"/>
    <path id="패스_7093" data-name="패스 7093" d="M86.161.181V21.351H82.017V7.621l-5.959,9.83h-.484l-5.957-9.8v13.7H65.444V.181h4.294l6.079,10.011L81.866.181Z" transform="translate(-19.399 -0.054)" fill="#fff"/>
    <path id="패스_7094" data-name="패스 7094" d="M143.848,21.411a10.53,10.53,0,0,1-10.657-10.688,10.3,10.3,0,0,1,3.082-7.575,10.778,10.778,0,0,1,15.151,0,10.214,10.214,0,0,1,3.112,7.575,10.579,10.579,0,0,1-10.688,10.688m0-3.964a6.418,6.418,0,0,0,4.727-1.879,6.572,6.572,0,0,0,1.909-4.845,6.569,6.569,0,0,0-1.909-4.844,6.807,6.807,0,0,0-9.453,0,6.564,6.564,0,0,0-1.909,4.844,6.567,6.567,0,0,0,1.909,4.845,6.412,6.412,0,0,0,4.726,1.879" transform="translate(-39.48 -0.011)" fill="#fff"/>
    <path id="패스_7095" data-name="패스 7095" d="M180.2.119h4.191V21.377H181.2l-9.111-13v13H167.9V.119h3.189l9.11,12.966Z" transform="translate(-49.77 -0.035)" fill="#fff"/>
    <path id="패스_7096" data-name="패스 7096" d="M200.416,17.346h8.024v3.967H196.269V.275h4.147Z" transform="translate(-58.178 -0.081)" fill="#fff"/>
    <path id="패스_7097" data-name="패스 7097" d="M230.847,21.339l-1.269-3.8h-8.422l-1.268,3.8h-4.5l7.4-21.128h5.161l7.423,21.128Zm-8.361-7.7h5.795l-2.9-8.632Z" transform="translate(-63.847 -0.063)" fill="#fff"/>
    <path id="패스_7098" data-name="패스 7098" d="M262.255,15.213a5.688,5.688,0,0,1-1.9,4.406,6.738,6.738,0,0,1-4.679,1.721h-8.964V.211h8.33A6.552,6.552,0,0,1,259.6,1.9a5.5,5.5,0,0,1,1.871,4.256,5.139,5.139,0,0,1-1.992,4.226,5.237,5.237,0,0,1,2.776,4.829M250.877,4.1V8.753h4.164a2.238,2.238,0,0,0,2.263-2.325A2.22,2.22,0,0,0,255.042,4.1Zm4.8,13.341a2.4,2.4,0,0,0,2.444-2.505,2.387,2.387,0,0,0-2.444-2.474h-4.8v4.979Z" transform="translate(-73.13 -0.063)" fill="#fff"/>
    <path id="패스_7099" data-name="패스 7099" d="M270.057,16.327l3.453-2.019a4.605,4.605,0,0,0,4.71,3.132c2.254,0,3.278-.908,3.278-2.166a1.824,1.824,0,0,0-.966-1.667,14.1,14.1,0,0,0-3.453-1.317,13.21,13.21,0,0,1-4.242-1.9,4.942,4.942,0,0,1-1.931-4.214,5.437,5.437,0,0,1,1.959-4.419A7.193,7.193,0,0,1,277.637.087a7.828,7.828,0,0,1,7.315,4.594l-3.394,1.961a4.1,4.1,0,0,0-3.921-2.634c-1.669,0-2.693.849-2.693,2.048a1.918,1.918,0,0,0,.79,1.581,12.585,12.585,0,0,0,3.1,1.287l1.406.469a12.13,12.13,0,0,1,1.317.5,5.932,5.932,0,0,1,1.286.614,6.014,6.014,0,0,1,1.933,1.815,5.576,5.576,0,0,1,.76,2.9,5.489,5.489,0,0,1-2.077,4.506A8.248,8.248,0,0,1,278.1,21.39c-4.067,0-6.906-1.931-8.047-5.063" transform="translate(-80.05 -0.026)" fill="#fff"/>
    <path id="패스_7100" data-name="패스 7100" d="M15.421,15.568a6.433,6.433,0,0,1-4.738,1.883,6.432,6.432,0,0,1-4.738-1.883,6.586,6.586,0,0,1-1.913-4.857A6.583,6.583,0,0,1,5.945,5.857a6.455,6.455,0,0,1,4.738-1.914,6.543,6.543,0,0,1,5.591,2.966l3.466-2a10.777,10.777,0,0,0-1.465-1.791A10.325,10.325,0,0,0,10.683,0,10.328,10.328,0,0,0,3.09,3.119,10.316,10.316,0,0,0,0,10.711,10.556,10.556,0,0,0,10.683,21.425a10.416,10.416,0,0,0,7.592-3.092,11,11,0,0,0,1.52-1.9l-3.479-1.989a6.477,6.477,0,0,1-.9,1.123" transform="translate(0 0)" fill="#fff"/>
  </g>
</svg>
