<svg xmlns="http://www.w3.org/2000/svg" xmlns:xlink="http://www.w3.org/1999/xlink" width="277.159" height="22.632" viewBox="0 0 277.159 22.632">
  <defs>
    <clipPath id="clip-path">
      <rect id="사각형_1041" data-name="사각형 1041" width="277.159" height="22.632" fill="#fff"/>
    </clipPath>
  </defs>
  <g id="그룹_380" data-name="그룹 380" transform="translate(0 0)">
    <path id="패스_7083" data-name="패스 7083" d="M160.369.895h-5.181l-7.514,9.346V.895h-3.59V23h3.59V13.21L156.04,23h5.141L151.2,11.6Z" transform="translate(-104.149 -0.647)" fill="#fff"/>
    <g id="그룹_379" data-name="그룹 379" transform="translate(0 0)">
      <g id="그룹_378" data-name="그룹 378" transform="translate(0 0)" clip-path="url(#clip-path)">
        <path id="패스_7084" data-name="패스 7084" d="M9.8,9.53C4.843,8.515,4.843,7.3,4.843,6.163c0-1.56,1.6-2.691,3.8-2.691A7.563,7.563,0,0,1,13.9,5.463l.833.72,2.3-2.859L16.2,2.657A10.975,10.975,0,0,0,8.7,0c-4.261,0-7.47,2.71-7.47,6.361,0,4.519,3.834,5.9,7.573,6.656,4.781.961,4.781,2.148,4.781,3.253,0,1.7-1.628,2.889-3.966,2.889a8.657,8.657,0,0,1-6.428-2.676l-.8-.745L0,18.468l.787.7a12.353,12.353,0,0,0,8.744,3.461c4.443,0,7.672-2.737,7.672-6.562,0-4.459-3.955-5.837-7.4-6.54" transform="translate(0 0)" fill="#fff"/>
        <rect id="사각형_1040" data-name="사각형 1040" width="3.618" height="22.068" transform="translate(78.543 0.282)" fill="#fff"/>
        <path id="패스_7085" data-name="패스 7085" d="M382,7.374l12.446,15.712h2.694V1.019h-3.566V16.361L381.411,1.019h-2.979V23.086H382Z" transform="translate(-273.546 -0.736)" fill="#fff"/>
        <path id="패스_7086" data-name="패스 7086" d="M644.789,2.168a10.383,10.383,0,0,0-10.484,10.744c0,6.193,4.386,10.689,10.429,10.689a10.376,10.376,0,0,0,10.477-10.741c0-6.2-4.375-10.691-10.421-10.691m0,18.158c-3.987,0-6.365-3.8-6.365-7.467,0-3.6,2.211-7.418,6.31-7.418,3.974,0,6.354,3.8,6.354,7.47,0,3.593-2.2,7.415-6.3,7.415" transform="translate(-458.502 -1.567)" fill="#fff"/>
        <path id="패스_7087" data-name="패스 7087" d="M805.1,12.859c0-6.2-4.379-10.691-10.419-10.691A10.381,10.381,0,0,0,784.2,12.912c0,6.193,4.376,10.689,10.42,10.689A10.379,10.379,0,0,0,805.1,12.859m-10.419,7.467c-3.984,0-6.364-3.8-6.364-7.467,0-3.6,2.206-7.418,6.3-7.418,3.982,0,6.366,3.8,6.366,7.47,0,3.593-2.209,7.415-6.305,7.415" transform="translate(-566.855 -1.567)" fill="#fff"/>
        <path id="패스_7088" data-name="패스 7088" d="M949.057,14.432V.51h-2.909l-12.128,15,1.08,2.335h10.4v4.871h3.553V17.847h3.25V14.432Zm-3.553,0H939.3L945.5,6.738Z" transform="translate(-675.149 -0.369)" fill="#fff"/>
        <path id="패스_7089" data-name="패스 7089" d="M531.118.521,527.933.511V4.1h3.175L531.1,22.719h3.589V.511h-3.566Z" transform="translate(-381.612 -0.369)" fill="#fff"/>
      </g>
    </g>
  </g>
</svg>
