<svg id="그룹_412" data-name="그룹 412" xmlns="http://www.w3.org/2000/svg" xmlns:xlink="http://www.w3.org/1999/xlink" width="966.109" height="189.447" viewBox="0 0 966.109 189.447">
  <defs>
    <clipPath id="clip-path">
      <rect id="사각형_1056" data-name="사각형 1056" width="966.109" height="189.447" fill="#fff"/>
    </clipPath>
  </defs>
  <path id="패스_7078" data-name="패스 7078" d="M916.726,139.68l-12.638,46.042h49.166l12.637-46.042Zm49.165,0h0Z" fill="#fff"/>
  <g id="그룹_411" data-name="그룹 411">
    <g id="그룹_410" data-name="그룹 410" clip-path="url(#clip-path)">
      <path id="패스_7079" data-name="패스 7079" d="M723.733,79.184c11.193,0,17.812,7.456,17.534,15.4a19.125,19.125,0,0,1-1.244,6.364H693.986c6.235-16.218,20.467-21.761,29.747-21.761m-19.519,110.26c26.066,0,46.991-9.04,64.351-23.618l-.3-.34L734.8,139.453c-8.176,4.952-15.933,7.484-23.986,7.484-13.853,0-21.159-7.735-21.566-19.435h97.423a90.131,90.131,0,0,0,5.236-27.1c1.065-30.522-16.145-62.963-65.071-62.963-56.432,0-91.678,44.141-93.212,88.221-1.327,38.051,25.487,63.788,70.587,63.788" fill="#fff"/>
      <path id="패스_7080" data-name="패스 7080" d="M332.049,38.959l-25.916,63.827h-6.419c-29,0-44.509,15.1-52.93,46.913L237.03,185.72H175.344L215.04,41.1h61.619l-7.885,29.139c13.83-19.647,39.35-32.346,63.275-31.275" fill="#fff"/>
      <path id="패스_7081" data-name="패스 7081" d="M944.142,38.959l-25.916,63.827h-6.419c-29.005,0-44.509,15.1-52.93,46.913l-9.759,36.021H787.432L827.133,41.1h61.619l-7.885,29.139c13.83-19.647,39.35-32.346,63.275-31.275" fill="#fff"/>
      <path id="패스_7082" data-name="패스 7082" d="M0,109.776C0,60.209,39.094,0,119.406,0c40.16,0,68.618,20.762,76.326,52.941l-55.58,23.613c-3.993-14.8-14.89-22.057-28.988-22.057-27.918,0-46,24.918-46,49.818,0,19.988,12.766,31.147,29.251,31.147,14.355,0,26.061-6.742,36.16-18.944l43.093,33.221c-18.616,23.88-45.747,39.707-85.371,39.707C36.172,189.447,0,158.563,0,109.776" fill="#fff"/>
      <path id="패스_7083" data-name="패스 7083" d="M547.221,113.853l-4.071-72.694H479.8l19.932,144.563h57.659L656.521,41.159H591.266Z" fill="#fff"/>
      <path id="패스_7084" data-name="패스 7084" d="M399.009,135.333c-1.74,6.017-9.469,17.6-23.841,18.208-11.767.5-17.35-5.956-17.233-13.842.134-9.23,9.258-15.771,22.33-16.658s21.533,2.013,21.533,2.013-1.512,5.851-2.789,10.279m.028-97.9c-20.094,0-42.039,2.538-57.91,6.826l5.716,42.033c9.893-2.777,26.451-6.168,39.707-6.168,15.487,0,22.787,5.12,22.787,14.255,0,.758-.061,1.589-.133,2.347a37.328,37.328,0,0,1-.954,4.914l-.547,1.6c-.067,0-.206-.073-.273-.073a120.947,120.947,0,0,0-33.366-4.774c-41.832,0-66.259,20.138-66.259,51.068,0,25.246,16.853,39.986,39.646,39.986,17.06,0,28.247-6.982,41.553-17.985l-.067.273-3.865,14.042h61.552L468.3,105.658a83.836,83.836,0,0,0,2.66-20.411c0-29.34-22.787-47.811-71.919-47.811" fill="#fff"/>
    </g>
  </g>
</svg>
