<svg id="그룹_385" data-name="그룹 385" xmlns="http://www.w3.org/2000/svg" xmlns:xlink="http://www.w3.org/1999/xlink" width="72.068" height="25.426" viewBox="0 0 72.068 25.426">
  <defs>
    <clipPath id="clip-path">
      <rect id="사각형_1043" data-name="사각형 1043" width="72.068" height="25.426" fill="#fff"/>
    </clipPath>
  </defs>
  <g id="그룹_384" data-name="그룹 384" clip-path="url(#clip-path)">
    <path id="패스_7101" data-name="패스 7101" d="M8.587,44.953a2.425,2.425,0,0,1-2.694-2.627V30.2h5.893v-.875H5.893V24.949H5.523L2.458,29.327H0V30.2H2.458V41.383c0,3.267,1.684,5.152,4.782,5.152a7.277,7.277,0,0,0,4.917-2.324l-.37-.269a7.286,7.286,0,0,1-3.2,1.01" transform="translate(0 -21.11)" fill="#fff"/>
    <path id="패스_7102" data-name="패스 7102" d="M84.631,1.612l2.334.884V25.021h3.3V0L84.631,1.408Z" transform="translate(-71.608 0)" fill="#fff"/>
    <path id="패스_7103" data-name="패스 7103" d="M222.288,52.914l2.334.884V68.7h3.3V51.617l-5.634,1.093Z" transform="translate(-188.082 -43.674)" fill="#fff"/>
    <path id="패스_7104" data-name="패스 7104" d="M286.63,52.914l2.334.884V68.7h3.3V51.617L286.63,52.71Z" transform="translate(-242.524 -43.674)" fill="#fff"/>
    <path id="패스_7105" data-name="패스 7105" d="M134.318,51.617a9.04,9.04,0,0,0-5.029,1.36v.9a6.1,6.1,0,0,1,3.173-.764,3.65,3.65,0,0,1,3.705,3.8V68.7h3.3V55.9c0-1.844-1.74-4.282-5.149-4.282" transform="translate(-109.394 -43.674)" fill="#fff"/>
    <path id="패스_7106" data-name="패스 7106" d="M408.612,51.617a9.145,9.145,0,0,0-4.776,1.205v.919a6.1,6.1,0,0,1,2.92-.632,3.65,3.65,0,0,1,3.705,3.8V68.7h3.3V55.9c0-1.844-1.74-4.282-5.149-4.282" transform="translate(-341.694 -43.674)" fill="#fff"/>
    <path id="패스_7107" data-name="패스 7107" d="M340.743,54.158a4.611,4.611,0,0,0-1.353-1.536,5.564,5.564,0,0,0-3.326-1.005,9.146,9.146,0,0,0-4.776,1.205v.919a6.1,6.1,0,0,1,2.92-.632,3.65,3.65,0,0,1,3.705,3.8V68.695h3.3V55.9A3.488,3.488,0,0,0,341,54.735a4.149,4.149,0,0,0-.257-.577" transform="translate(-280.31 -43.673)" fill="#fff"/>
    <path id="패스_7108" data-name="패스 7108" d="M237.361,6.784a1.987,1.987,0,1,0,1.987,1.987,1.987,1.987,0,0,0-1.987-1.987" transform="translate(-199.155 -5.74)" fill="#fff"/>
  </g>
</svg>
